<?xml version="1.0" encoding="UTF-8"?><svg id="a" xmlns="http://www.w3.org/2000/svg" viewBox="0 0 34.5 52.38"><defs><style>.b{fill:#fff;}</style></defs><path class="b" d="M32.9,28.9c-1.95,1.32-4.9,1.16-6.59-.35L1.13,5.98h0C-.55,4.47-.34,2.19,1.61,.88,3.56-.43,6.51-.26,8.19,1.25l25.17,22.58c.74,.66,1.14,1.49,1.14,2.36,0,1.04-.59,2.03-1.6,2.71Z"/><path class="b" d="M33.36,28.55L8.2,51.13h0c-1.69,1.51-4.63,1.68-6.58,.37-1.95-1.31-2.16-3.59-.48-5.1L26.31,23.83c.88-.78,2.16-1.24,3.5-1.24,2.58-.01,4.68,1.6,4.69,3.6,0,.87-.4,1.7-1.14,2.36Z"/></svg>