<?xml version="1.0" encoding="utf-8"?>
<!-- Generator: Adobe Illustrator 26.1.0, SVG Export Plug-In . SVG Version: 6.00 Build 0)  -->
<svg version="1.1" id="a" xmlns="http://www.w3.org/2000/svg" xmlns:xlink="http://www.w3.org/1999/xlink" x="0px" y="0px"
	 viewBox="0 0 34.5 52.4" style="enable-background:new 0 0 34.5 52.4;" xml:space="preserve">
<style type="text/css">
	.st0{fill:#FFFFFF;}
</style>
<path class="st0" d="M0,26.3c0-0.9,0.4-1.7,1.1-2.4L26.3,1.3c1.7-1.5,4.6-1.7,6.6-0.4s2.2,3.6,0.5,5.1l0,0L8.2,28.5
	c-1.7,1.6-4.6,1.7-6.6,0.4C0.6,28.2,0,27.2,0,26.3z"/>
<path class="st0" d="M0,26.2c0-2,2.1-3.6,4.7-3.6c1.3,0,2.6,0.4,3.5,1.2l25.2,22.6c1.7,1.5,1.5,3.8-0.5,5.1s-4.9,1.1-6.6-0.4l0,0
	L1.1,28.5C0.4,27.9,0,27.1,0,26.2z"/>
</svg>
