<?xml version="1.0" encoding="UTF-8"?><svg id="a" xmlns="http://www.w3.org/2000/svg" viewBox="0 0 145.89 117.91"><defs><style>.b{fill:#fff;stroke:#fff;stroke-miterlimit:10;stroke-width:3px;}</style></defs><path class="b" d="M1.52,58.62c0-15.88,.02-31.76-.02-47.64,0-1.98,.75-3.22,2.51-4.09C11.23,3.31,18.89,1.72,26.9,1.57c15.81-.29,30.51,4.1,44.71,10.59,.96,.44,1.7,.43,2.62,0,10.19-4.79,20.81-8.29,31.99-9.82,11.51-1.58,22.87-1.16,33.71,3.69,.32,.14,.62,.31,.95,.42,2.66,.93,3.52,2.75,3.51,5.59-.09,31.12-.05,62.23-.05,93.35,0,.49,.01,.99-.01,1.48-.13,2.84-2.57,4.33-5.12,3.04-3.96-1.99-8.09-3.35-12.45-4.12-6.95-1.23-13.89-.95-20.8,.16-10.44,1.69-20.43,4.92-29.88,9.65-2.35,1.18-4.13,1.05-6.44-.08-10.12-4.95-20.76-8.4-31.95-9.89-10.04-1.33-19.92-.88-29.31,3.44-.54,.25-1.07,.51-1.6,.77-2.79,1.37-5.22-.14-5.22-3.28,0-15.98,0-31.96,0-47.93ZM69.46,18.7c-11.28-5.56-26.39-10.02-38.78-10.37-7.18-.2-14.19,.62-20.9,3.35-1.17,.48-1.48,1.09-1.47,2.29,.03,28.64,.03,57.27,.03,85.91v1.82c6.36-2.36,12.72-3.37,19.23-3.45,11.25-.14,22.06,2.23,32.61,5.93,3.1,1.09,6.15,2.35,9.3,3.56V18.7Zm68.09,83.03v-1.55c0-28.8,0-57.59,.03-86.39,0-1.14-.4-1.64-1.39-2.05-8.95-3.69-18.26-4.06-27.69-2.87-10.71,1.35-20.87,4.65-30.69,9.06-1.11,.5-1.49,1.06-1.49,2.29,.04,28.65,.03,57.3,.03,85.94v1.62c2.61-1.03,5.07-2.04,7.55-2.96,10.02-3.7,20.3-6.19,31.02-6.55,7.66-.26,15.18,.64,22.63,3.46Z"/><path class="b" d="M26.38,67.5c1.01,.32,2.47,.76,3.91,1.22,7.45,2.39,14.91,4.78,22.36,7.2,1.85,.6,2.66,1.75,2.61,3.49-.05,1.5-.98,2.72-2.5,3.09-.55,.13-1.2,.16-1.73-.01-8.77-2.79-17.54-5.6-26.29-8.46-1.74-.57-2.53-2.25-2.13-4.06,.31-1.4,1.75-2.48,3.77-2.46Z"/><path class="b" d="M55.26,56.83c0,2.47-2.1,3.93-4.66,3.15-2.6-.79-5.16-1.66-7.74-2.5-5.87-1.89-11.74-3.78-17.6-5.69-2.22-.72-3.2-2.44-2.6-4.43,.55-1.8,2.5-2.71,4.61-2.03,8.5,2.73,16.99,5.48,25.48,8.24,1.68,.55,2.51,1.67,2.51,3.25Z"/><path class="b" d="M26.27,22.71c.24,.06,.77,.16,1.28,.33,8.25,2.66,16.49,5.33,24.75,7.97,1.46,.47,2.63,1.2,2.92,2.8,.48,2.55-1.78,4.67-4.27,3.88-8.73-2.76-17.44-5.59-26.15-8.44-1.8-.59-2.58-2.14-2.21-3.99,.3-1.49,1.74-2.58,3.67-2.55Z"/><path class="b" d="M123.29,26.05c0,1.66-.89,2.8-2.74,3.4-6.28,2.03-12.56,4.04-18.85,6.05-2.2,.71-4.4,1.44-6.61,2.12-1.98,.61-3.88-.33-4.42-2.11-.56-1.86,.37-3.67,2.35-4.32,8.57-2.79,17.15-5.55,25.73-8.28,2.4-.76,4.53,.76,4.55,3.13Z"/><path class="b" d="M123.3,70.79c.02,1.72-.87,2.82-2.86,3.46-7.73,2.5-15.46,4.99-23.2,7.48-.7,.23-1.41,.46-2.12,.66-2.03,.58-3.87-.28-4.44-2.06-.61-1.88,.38-3.72,2.43-4.4,2.99-.99,6-1.93,9-2.9,5.49-1.76,10.97-3.54,16.46-5.29,2.53-.8,4.7,.62,4.73,3.05Z"/><path class="b" d="M123.29,48.7c-.03,1.3-.76,2.45-2.21,2.93-8.72,2.85-17.44,5.68-26.19,8.45-1.93,.61-3.74-.48-4.24-2.24-.53-1.89,.42-3.61,2.44-4.27,8.44-2.75,16.89-5.49,25.34-8.2,2.62-.84,4.84,.6,4.86,3.33Z"/></svg>