<?xml version="1.0" encoding="UTF-8"?><svg id="a" xmlns="http://www.w3.org/2000/svg" viewBox="0 0 122.33 124.83"><defs><style>.b{fill:#fff;}</style></defs><path class="b" d="M61.16,124.83C27.44,124.83,0,96.83,0,62.41S27.44,0,61.16,0s61.16,28,61.16,62.41-27.44,62.41-61.16,62.41Zm0-115.93c-28.82,0-52.27,24.01-52.27,53.52s23.45,53.52,52.27,53.52,52.27-24.01,52.27-53.52S89.99,8.89,61.16,8.89Z"/><path class="b" d="M104.73,78.74c-.15,.35-.32,.7-.44,1.06-.28,.89-.91,1.52-1.55,2.13-.1,.1-.2,.19-.32,.28-.66,.47-.85,1.07-.56,1.85,.07,.19,.02,.44-.03,.65-.12,.54-.38,1.04-.3,1.63,.03,.23-.19,.51-.32,.75-.29,.51-.61,.99-.88,1.51-.18,.35-.41,.57-.8,.58-1.44,.05-2.65,.71-3.84,1.43-.39,.24-.44,.38-.34,.81,0,.01,0,.02,0,.03,.33,.75,.1,1.32-.5,1.83-.21,.18-.34,.47-.5,.71-.13,.2-.25,.32-.51,.2-.09-.04-.28,.01-.36,.09-.12,.13-.2,.31-.27,.48-.06,.14-.08,.29-.11,.44-.13,.61-1.64,2.05-2.25,2.15-1.04,.17-1.65-.29-1.82-1.35-.03-.19-.06-.39-.1-.58-.2,.9,.04,1.68,.74,2.28,.28,.24,.28,.46,.1,.73-.13,.19-.29,.37-.4,.58-.37,.75-.99,1.04-1.8,1.02-.44-.02-.89-.04-1.33-.02-.12,0-.31,.12-.33,.22-.05,.26-.05,.53-.01,.79,.04,.33,0,.42-.34,.37-.32-.06-.64-.16-.95-.23-.17-.04-.34-.06-.63-.11,.12,.34,.15,.67,.32,.83,.17,.16,.49,.15,.83,.23-.1,.16-.18,.37-.33,.52-.61,.62-1.23,1.22-1.85,1.82-.07,.07-.16,.12-.2,.19-.06,.12-.13,.27-.09,.37,.02,.08,.2,.14,.31,.16,.22,.04,.44,.03,.67,.05,.19,.02,.29,.14,.2,.31-.17,.32-.32,.69-.57,.93-.4,.39-.88,.7-1.34,1.02-.48,.34-.63,1.08-.25,1.55,.59,.73,1.29,1.3,2.31,1.28,.14,0,.28,.03,.42,.05,.04,0,.08,.03,.21,.08-.19,.08-.3,.16-.42,.19-.67,.15-1.35,.27-2.02,.45-.82,.22-1.5-.13-2.28-.42,.18-.16,.34-.3,.49-.44,.13-.12,.28-.22,.38-.36,.06-.08,.06-.22,.04-.32-.02-.06-.16-.15-.21-.13-.09,.03-.19,.13-.23,.22-.07,.15-.09,.32-.15,.47-.16,.39-.51,.5-.85,.24-.35-.25-.71-.5-1.01-.8-.15-.15-.27-.43-.26-.64,.01-.36-.08-.59-.41-.77-.47-.24-.46-.29-.1-.67,.23-.24,.2-.35-.11-.47-.45-.18-.52-.36-.31-.8,.01-.02,.02-.04,.03-.06,.35-.42,.44-.83,.04-1.29-.2-.24,.01-.49,.17-.69,.27-.36,.56-.72,.83-1.09,.23-.32,.3-.66,.14-1.05-.21-.52-.2-1.03,.07-1.56,.19-.37,.33-.78-.13-1.13-.19-.15-.17-.44,.04-.59,.27-.2,.34-.42,.3-.75-.02-.18,.12-.39,.21-.58,.28-.59,.62-1.16,.83-1.78,.1-.29,0-.67-.09-.98-.09-.32-.15-.57,.2-.77,.17-.1,.23-.26,.07-.44-.18-.21-.13-.42,.06-.55,.59-.38,.51-.93,.51-1.52,0-.8,.13-1.61,.19-2.41,.05-.71,.13-1.42,.12-2.13-.01-.72-.46-1.22-1.04-1.57-.66-.4-1.28-.84-2.02-1.12-.59-.22-1.04-.63-1.07-1.35,0-.17-.1-.37-.22-.51-.68-.75-.97-1.7-1.41-2.58-.18-.36-.28-.77-.46-1.13-.09-.18-.25-.34-.41-.46-.23-.18-.5-.31-.73-.49-.33-.27-.38-.59-.18-.97,.06-.11,.12-.24,.21-.32,.48-.44,.43-.93,.19-1.47-.35-.82-.33-.86,.33-1.45,.52-.47,1.02-.95,1.53-1.42,.02-.02,.04-.03,.04-.05,.15-.8,.59-1.59,.19-2.43-.21-.43-.44-.85-.69-1.26-.23-.36-.59-.3-.84-.27-.19,.3-.29,.57-.48,.74-.29,.27-.5,.22-.79-.06-.11-.1-.24-.2-.38-.24-.45-.13-.81-.39-1.16-.69-.29-.25-.62-.46-.95-.65-.37-.21-.6-.48-.58-.92,.01-.4-.17-.7-.5-.91-.26-.17-.55-.31-.82-.46-.07-.04-.16-.09-.23-.07-.57,.14-1.06-.17-1.59-.28-.29-.06-.57-.21-.81-.39-.36-.28-.68-.61-1.01-.92-.5-.48-1.03-.46-1.48,.07-.3,.36-.5,.4-.8,.06-.4-.45-.88-.59-1.44-.56-.42,.02-.76-.17-1.01-.49-.29-.37-.67-.61-1.09-.79-.49-.22-.97-.47-1.45-.71-.58-.29-.86-.84-.8-1.49,.01-.16-.03-.33-.09-.48-.26-.59-.7-1.01-1.26-1.32-.13-.07-.27-.16-.35-.28-.74-1.08-1.61-2.04-2.6-2.89-.47-.41-.8-.9-.99-1.51-.05-.15-.23-.37-.34-.36-.16,0-.39,.15-.46,.3-.06,.12,.01,.38,.11,.5,.64,.75,1.32,1.47,1.96,2.23,.19,.22,.33,.51,.41,.8,.09,.34,.22,.59,.51,.8,.27,.18,.51,.41,.73,.65,.16,.16,.21,.37,.01,.56-.18,.18-.38,.16-.57,.02-.12-.09-.22-.21-.34-.3-.2-.15-.4-.31-.63-.41-.24-.11-.42-.22-.43-.52,0-.12-.11-.26-.19-.36-.14-.17-.32-.31-.45-.49-.29-.39-.62-.62-1.13-.47-.1,.03-.29-.01-.34-.08-.05-.07,0-.24,.06-.35,.07-.13,.16-.26,.27-.37,.21-.22,.2-.47-.05-.59-.83-.37-1.06-1.17-1.43-1.88-.2-.38-.41-.77-.63-1.13-.25-.4-.56-.71-1.1-.69-.16,0-.34-.14-.48-.25-.24-.21-.47-.43-.66-.68-.63-.83-1.26-1.66-1.84-2.52-.38-.56-.54-1.2-.45-1.9,.1-.82,.15-1.66,.15-2.49,0-.44-.14-.88-.25-1.31-.04-.15-.17-.3-.3-.41-.26-.21-.54-.41-.83-.58-.27-.16-.55-.3-.85-.39-.41-.12-.69-.48-.62-.88,.08-.45-.1-.92-.52-1.08-.57-.22-.81-.67-1.07-1.15-.11-.21-.22-.42-.55-.4,.08,.35-.02,.69,.32,.98,.18,.16,.23,.5,.28,.77,.04,.24-.13,.36-.36,.24-.39-.21-.8-.41-1.14-.68-.17-.14-.24-.44-.29-.68-.04-.24-.03-.49,.01-.74,.04-.29-.08-.47-.32-.55-.31-.1-.62-.21-.94-.23-.36-.03-.55-.2-.58-.53-.07-.75-.58-1.08-1.23-1.26-.49-.14-.99-.28-1.49-.41-.95-.24-1.91-.47-2.86-.7-.09-.02-.2-.05-.28-.02-.46,.19-.84-.01-1.22-.24-.27-.16-.51-.14-.74,.07-.42,.39-.89,.68-1.47,.76-.16,.02-.3,.17-.46,.24-.14,.07-.27,.14-.42,.17-.33,.08-.44-.04-.35-.37,.07-.23,.14-.45,.22-.72-.46,.04-.8,.2-.85,.59-.08,.51-.36,.81-.75,1.13,.24,0,.48,.02,.71,0,.28-.03,.34,.08,.27,.32-.11,.39-.89,1.05-1.3,1.01-.22-.02-.47-.15-.63-.31-.26-.27-.49-.3-.81-.13-.54,.3-1.09,.6-1.65,.85-.26,.12-.56,.13-.84,.19-.15,.03-.3,.05-.44,.1-.69,.22-1.38,.45-2.08,.65-.11,.03-.28-.12-.42-.18,.07-.14,.11-.36,.22-.41,.93-.42,1.87-.8,2.8-1.2,.42-.18,.83-.37,1.22-.61,.12-.07,.16-.3,.24-.45-.17-.04-.4-.17-.49-.1-.46,.33-.75,.04-1.04-.25-.2-.19-.35-.19-.52,.03-.09,.11-.13,.33-.37,.21-.24-.11-.43-.25-.42-.54,0-.1,.05-.22,.03-.31-.03-.12-.08-.28-.18-.34-.06-.04-.22,.06-.32,.13-.14,.1-.25,.25-.39,.34-.52,.31-.57,.3-.97-.14-.27-.29-.57-.56-.83-.86-.28-.33-.22-.51,.13-.78,.7-.54,1.46-.87,2.37-.79,.34,.03,.62-.12,.8-.42,.11-.18,.1-.33-.15-.33-.22,0-.47,0-.64,.11-.41,.26-.85,.34-1.31,.31-.44-.03-.89-.07-1.33-.15-.51-.09-.94-.47-1.3-1.09,.47-.13,.93-.24,1.38-.37,.29-.09,.57-.18,.84-.32,.17-.09,.27-.11,.43,.03,.46,.42,1.03,.53,1.62,.57,.1,0,.26-.04,.29-.12,.04-.08,0-.25-.08-.31-.18-.17-.37-.33-.58-.43-.35-.16-.71-.29-1.08-.39-.26-.07-.53-.08-.8-.1-.53-.05-.72-.22-.77-.81,.25,0,.51-.04,.75,.01,.28,.06,.51,0,.72-.17,.52-.42,1.11-.7,1.76-.84,.43-.09,.88-.09,1.31-.16,.57-.09,1.12-.22,1.32-.95,.28,.16,.5,.32,.75,.43,.2,.09,.46,.21,.65,.15,.45-.14,.81-.02,1.15,.24,.27,.2,.55,.28,.89,.24,2.02-.25,4.02,.15,6.03,.25,.31,.02,.62,.14,.93,.17,.42,.03,.84,.06,1.26,.01,.67-.08,1.22,.14,1.71,.55,.22,.19,.42,.26,.66,.09,.25-.18,.45-.43,.71-.59,.18-.11,.44-.15,.65-.14,.38,.02,.77,.1,1.15,.15,.41,.06,.79,.02,1.15-.22,.49-.31,1-.28,1.51-.06,.3,.13,.56,.14,.8-.11,.17-.17,.33-.14,.45,.07,.11,.18,.23,.35,.36,.54,.09-.06,.17-.11,.24-.17,.39-.33,.81-.41,1.33-.3,.51,.1,1.05,.05,1.58,.06,.55,.01,1.09,.05,1.6,.34,.22,.12,.49,.13,.74,.2,.26,.07,.52,.14,.77,.24,.33,.12,.5,.07,.71-.24-.01-.03-.02-.07-.05-.08-.7-.4-1.18-1.02-1.66-1.64-.24-.31-.34-.32-.53,.02-.2,.34-.5,.49-.86,.53-.43,.05-.86,.08-1.3,.12-.28,.02-.5-.07-.73-.25-.21-.17-.53-.2-.8-.28-.2-.06-.41-.1-.69-.17,.15-.13,.2-.22,.27-.23,.53-.06,.66-.47,.8-.87,.2-.56,.27-.61,.86-.6,.87,.02,1.73,.06,2.6,.03,.28,0,.56-.18,.84-.28,.26,0,.52,0,.77,0,.08,.04,.19,.07,.24,.13,.27,.39,.69,.49,1.1,.63,.31,.11,.6,.27,.91,.36,.28,.09,.58,.18,.87,.17,.57-.02,1.14-.13,1.71-.17,.76-.05,.89,.06,1.21,.74,.1,.21,.25,.39,.38,.58l.13-.07c-.11-.39-.23-.77-.33-1.16-.11-.44,.02-.55,.46-.5,.51,.05,1.02,.06,1.53,.09,.17,.01,.34,.06,.57,.1-.16,.21-.29,.33-.34,.48-.06,.16-.11,.4-.03,.51,.32,.41,.71,.74,1.27,.79,.3,.03,.61,.05,.9,.14,.41,.12,.46,.4,.16,.71-.31,.33-.72,.42-1.15,.46-.4,.04-.8,.03-1.19,.09-.24,.04-.59,.1-.56,.42,.03,.33,.38,.28,.63,.28,.93,.02,1.85,.03,2.78,.03,.42,0,.85,0,1.26-.06,.15-.02,.38-.18,.4-.31,.03-.17-.08-.39-.19-.55-.07-.1-.24-.13-.36-.2-.06-.04-.12-.11-.13-.18,0-.04,.07-.11,.13-.14,.08-.04,.18-.07,.27-.07,.43,0,.86,0,1.28,0,.05,.44,.09,.86,.14,1.29,.04,.35,.22,.47,.56,.39,.22-.05,.43-.14,.64-.17,.33-.04,.41-.23,.38-.51-.01-.15-.02-.31-.07-.45-.15-.43-.32-.85-.47-1.28-.17-.49,.03-.73,.54-.66,.12,.02,.27,.05,.36,.13,.58,.54,1.15,1.09,1.72,1.64,.04,.04,.07,.09,.09,.15,.13,.32,.33,.31,.58,.13,.06-.05,.14-.08,.21-.13,.29-.2,.55-.18,.84,.03,.28,.2,.34,.45,.26,.77-.03,.11-.03,.22-.05,.34l.08,.09c.18-.12,.35-.24,.53-.36,.21-.15,.4-.36,.63-.45,.45-.17,.58-.35,.51-.94-.55-.02-1.11-.06-1.67-.06-.93,0-1.51-.43-1.74-1.32-.01-.04-.03-.09-.05-.13-.19-.27-.04-.43,.19-.52,.58-.24,1.18-.46,1.77-.68,.07-.03,.16-.03,.24-.03,.5-.02,.77,.25,.74,.75-.02,.26-.07,.52-.12,.84,.25-.04,.46-.07,.66-.12,.39-.09,.47-.22,.33-.6-.1-.27-.06-.38,.24-.4,1.18-.08,2.36-.13,3.54-.27,.77-.09,1.43,.11,2.08,.45,1.15,.59,2.35,1.05,3.62,1.3,.57,.11,1.15,.22,1.73,.3,.26,.03,.37,.16,.42,.39,.07,.28,.14,.57,.23,.85,.12,.37,.29,.51,.66,.39,.63-.21,1.07,.14,1.55,.43,.27,.17,.56,.33,.86,.42,.39,.12,.8,.18,1.25,.28-.21,.25-.37,.47-.56,.66-.68,.65-1.25,.7-2.07,.26-.37-.19-.78-.3-1.18-.41-.1-.03-.29,.02-.33,.1-.05,.08,0,.26,.06,.35,.07,.11,.2,.19,.32,.26,.26,.15,.55,.27,.81,.43,.55,.33,.72,.76,.56,1.47-.24-.13-.47-.26-.71-.37-.41-.18-.6-.12-.86,.23-.05,.07-.17,.11-.26,.11-.53,0-1.07,.03-1.47-.46-.16-.19-.4-.28-.65-.04-.06,.06-.27,0-.39-.05-.54-.25-1.08-.52-1.62-.77-.02,0-.05-.01-.07-.01-.99-.01-1.99-.24-2.96,.11-.08,.03-.28,0-.28-.02-.06-.3-.14-.61-.11-.91,.02-.27,.27-.38,.52-.37,.36,.02,.72,.05,1.08,.12,.32,.06,.55-.01,.7-.31,.2-.37,.51-.6,.91-.73,.19-.06,.38-.15,.56-.23v-.1c-.24-.11-.48-.2-.71-.33-.29-.17-.48-.12-.66,.18-.13,.23-.32,.55-.52,.58-.44,.07-.91-.02-1.37-.04l-.02-.13c.1-.07,.21-.13,.31-.2,.15-.11,.32-.21,.42-.36,.3-.44,.12-.8-.42-.85-.13-.01-.26,0-.39,.02-.24,.04-.37-.03-.42-.28-.03-.13-.17-.24-.31-.42-.15,.66-.15,.66-.76,.63-.22-.01-.45-.03-.67-.01-.36,.03-.66,.17-.94,.5,.24,.12,.46,.18,.62,.32,.16,.14,.35,.36,.35,.55,0,.14-.25,.34-.43,.42-.33,.15-.68,.24-1.03,.33-.2,.05-.41,.04-.61,.03-.42-.02-.84-.07-1.26-.08-.1,0-.21,.12-.31,.19,.12,.07,.23,.15,.36,.19,.09,.03,.23-.02,.3,.03,.27,.21,.55,.12,.84,.07,.15-.03,.33,.02,.47,.09,.38,.2,.74,.43,1.12,.63,.27,.14,.56,.24,.81,.4,.09,.06,.17,.34,.14,.36-.23,.16-.47,.32-.74,.41-.25,.08-.39-.14-.5-.35-.25-.48-.41-.55-.93-.39-.38,.12-.74,.3-1.11,.43-.28,.1-.58,.18-.9-.05l.48-.54c-.18-.13-.34-.23-.49-.36-.14-.12-.26-.27-.39-.41,0,.03-.02,.05-.02,.07-.07,.29-.05,.7-.24,.84-.19,.15-.58,.05-.88,.06-.48,.02-.95,.07-1.36,.39-.58,.45-1.19,.87-1.78,1.32-.21,.16-.45,.31-.62,.52-.41,.5-.17,1.3,.42,1.35,.43,.04,.67,.23,.76,.63,.07,.29,.25,.38,.52,.28,.45-.17,.86-.06,1.29,.11,.66,.25,1.34,.51,2.03,.65,.84,.18,1.66,.53,2.55,.35,.23-.04,.46,.08,.54,.35,.12,.41,.25,.81,.38,1.27l.53-.56h.09c0,.31,.05,.62-.01,.9-.06,.28,0,.53,.29,.57,.24,.03,.49,.04,.74,.03,.34-.02,.53-.24,.44-.57-.18-.59-.19-1.26-.67-1.74-.07-.07-.07-.23-.1-.34,.14-.02,.29-.08,.42-.05,.1,.02,.18,.15,.28,.19,.13,.05,.31,.14,.4,.09,.27-.13,.54-.29,.75-.5,.18-.18,.37-.47,.15-.72-.34-.38-.74-.71-1.12-1.06-.08-.07-.18-.12-.34-.23,.22-.07,.34-.13,.48-.15,.29-.05,.3-.17,.27-.45-.04-.44,.05-.9,.13-1.34,.02-.09,.23-.18,.37-.2,.41-.05,.82-.06,1.23-.1,.73-.06,1.41,.06,2.04,.49,.25,.17,.58,.21,.89,.29,.35,.09,.72,.13,1.06,.23,.36,.11,.39,.26,.12,.53-.15,.15-.19,.29-.05,.45,.52,.61,1.41,1.04,2.13,.09,.18-.23,.38-.44,.58-.65,.19-.2,.38-.2,.57,.02,.32,.36,.66,.7,.98,1.06,.43,.48,.89,.94,1.24,1.48,.21,.32,.43,.48,.78,.46,.68-.04,1.17,.34,1.49,.84,.29,.44,.63,.65,1.1,.77,.5,.13,.55,.27,.27,.71-.3,.47-.59,.95-.89,1.42,.16,.04,.3,.04,.39,.11,.31,.26,.64,.3,1.02,.22,.25-.05,.46,.04,.6,.27,.2,.33,.41,.65,.61,.98,.12,.19,.15,.39-.05,.59-.45-.3-.9-.35-1.37-.04-.06,.04-.2-.05-.3-.08-.22-.06-.45-.18-.67-.18-.47-.01-.94,.04-1.4,.04-.11,0-.25-.08-.31-.18-.03-.06,.06-.2,.11-.3,.09-.19,.18-.38,.3-.55,.22-.32,.46-.63,.7-.94,.06-.07,.17-.13,.19-.2,.03-.15,.07-.37,0-.44-.1-.09-.33-.11-.47-.07-.14,.05-.24,.21-.36,.32-.09,.09-.18,.21-.29,.25-.64,.23-1.29,.45-1.89,.66-.08,.11-.12,.23-.21,.28-.18,.11-.37,.2-.57,.26-.33,.11-.47,.01-.5-.33-.02-.23,0-.46,0-.82-.34,.42-.64,.25-.95,.12-.34-.14-.63-.07-.91,.17-.18,.16-.41,.27-.61,.41-.47,.33-.93,.67-1.4,1l.04,.09c.62-.21,1.24-.41,1.85-.62,.22-.07,.44-.17,.67-.2,.39-.06,.68,.11,.89,.44,.2,.31-.01,.52-.19,.73,.32,.53,.46,.6,.77,.39q.56-.39,.65,.27c.04,.3,.25,.42,.52,.29,.12-.06,.23-.16,.32-.27,.36-.4,.46-.4,.72,.08,.02,.04,.04,.08,.06,.12,.36,.74,.33,.8-.48,.98-1.05,.23-2.14,.31-3.05,.96-.05,.03-.11,.04-.16,.06-.27,.07-.47-.01-.54-.29-.05-.19-.07-.39-.1-.59-.05-.37-.21-.46-.45-.18-.3,.35-.67,.37-1.07,.4-.19,.01-.39,.07-.57,.16-.68,.32-.8,.71-.39,1.33,.18,.28,.08,.44-.18,.49-.44,.08-.9,.1-1.35,.15-.21,.02-.42,.02-.61,.09-.09,.03-.17,.24-.15,.35,.05,.34,0,.44-.36,.48-.37,.04-.47,.17-.34,.54,.11,.3-.03,.47-.23,.64-.2,.17-.39,.18-.58-.02-.06-.06-.2-.07-.28-.04-.05,.02-.09,.17-.07,.24,.08,.26,.16,.54,.3,.77,.27,.46,.25,.55-.21,.85-.51,.33-1,.69-1.5,1.04-.57,.39-1.13,.8-1.7,1.18-.4,.26-.5,.7-.29,1.13,.32,.66,.62,1.33,.87,2.02,.16,.44,.04,.88-.23,1.27-.18,.26-.52,.28-.6,.03-.15-.45-.47-.72-.81-1.01-.17-.14-.26-.39-.33-.61-.12-.34-.19-.7-.29-1.05-.03-.11-.07-.23-.12-.37-.12,.09-.2,.14-.27,.2-.3,.24-.43,.23-.68-.05-.08-.09-.13-.21-.22-.27-.14-.1-.31-.22-.47-.22-.6,.01-1.19,.06-1.79,.11-.3,.02-.54,.13-.61,.47-.1,.43-.3,.56-.68,.33-.71-.42-1.49-.38-2.26-.35-.18,0-.37,.11-.53,.21-.4,.26-.77,.55-1.16,.82-.29,.2-.59,.39-.89,.59,.43,.49,.49,.89,.29,1.47-.08,.22-.16,.45-.18,.68-.1,1.26,.15,2.38,1.29,3.13,.13,.08,.24,.19,.36,.29,.63,.49,.73,.5,1.4,.08,.26-.16,.51-.27,.83-.15,.31,.12,.58-.05,.61-.4,.01-.14-.02-.28-.05-.41-.07-.4,.18-.78,.58-.82,.55-.06,1.1-.09,1.64-.13,.3-.03,.47,.12,.55,.38,.14,.46,.07,.88-.3,1.22-.24,.21-.4,.45-.4,.79,0,.51,.11,1.03-.38,1.48,.8,.08,1.49,.39,2.17-.09,.14-.09,.45-.05,.62,.04,.24,.12,.45,.34,.64,.54,.24,.25,.26,.54,.19,.91-.13,.61-.18,1.25-.2,1.87-.02,.52,.3,.94,.68,1.26,.17,.14,.49,.21,.7,.16,.37-.09,.73-.26,1.05-.47,.24-.15,.44-.27,.69-.11,.22,.13,.47,.25,.62,.44,.24,.31,.53,.44,.85,.21,.22-.16,.43-.37,.58-.6,.59-.93,1.6-1.26,2.49-1.76,.12-.07,.32,.02,.48,.04-.03,.14-.01,.31-.09,.42-.36,.51-.3,1.06-.18,1.62,.02,.09,.08,.17,.13,.26h.11c.04-.2,.09-.4,.12-.6,.07-.51,.32-.9,.75-1.18,.52-.34,.64-.3,.95,.24,.03,.06,.07,.12,.11,.18,.14,.24,.27,.33,.56,.15,.55-.34,1.05-.19,1.4,.36,.06,.09,.12,.17,.2,.29,.09-.14,.2-.24,.22-.35,.07-.4,.36-.49,.68-.54,.49-.07,.9,.08,1.24,.44,.27,.29,.35,.28,.59-.04,.13-.18,.26-.36,.45-.61,.09,.74-.3,1.24-.57,1.82,.47,.07,.88,.14,1.29,.21,.09,.02,.2,.03,.26,.09,.34,.35,.72,.68,1,1.08,.29,.43,.63,.58,1.13,.5,.35-.06,.74-.12,1.07-.03,1.02,.25,1.71,.94,2.18,1.85,.13,.26,.26,.47,.59,.53,.35,.06,.44,.39,.44,.68,0,.15-.15,.37-.29,.45-.43,.23-.9,.39-1.34,.6-.13,.06-.21,.21-.32,.31,.14,.07,.28,.19,.41,.18,.41-.01,.8-.1,1.07-.49,.2-.3,.72-.34,.98-.12,.23,.19,.22,.53-.05,.84-.16,.18-.36,.33-.56,.48-.12,.09-.25,.15-.46,.28,.23,.04,.36,.07,.49,.09,.3,.05,.48-.01,.6-.36,.1-.3,.33-.56,.53-.82,.05-.07,.18-.12,.27-.12,.56,.04,1.11,.12,1.61,.43,.46,.28,.94,.53,1.4,.81,.35,.21,.74,.29,1.12,.17,.75-.23,1.33,.09,1.81,.56,.4,.39,.84,.63,1.37,.73,.52,.1,.88,.41,1.18,.82,.12,.17,.22,.35,.33,.53v.63Zm-31.18-36.32c.15,.45,.35,.66,.61,.7,.16,.02,.25-.01,.23-.2-.06-.43-.52-.9-.96-.93-.7-.05-1.4-.06-2.09-.16-.49-.07-.96-.05-1.41,.13-.51,.19-.71,.5-.72,1.05,0,.56,0,1.12,0,1.68,0,.15,0,.32,.06,.45,.07,.13,.23,.31,.35,.31,.15,0,.37-.15,.41-.28,.07-.25,.07-.53,.05-.79-.09-.83,.21-1.48,.9-1.85,.69-.37,1.49,0,1.44,.84-.02,.23,.03,.47,.08,.69,.03,.1,.15,.24,.24,.26,.33,.07,.76-.42,.66-.75-.11-.38-.03-.73,.15-1.14Zm-2.84-1.13c.07-.06,.24-.17,.35-.32,.22-.3,.16-.37-.17-.53-.37-.17-.73-.37-1.04-.62-.26-.21-.48-.22-.76-.09-.67,.33-1.35,.63-2.01,.96-.11,.06-.21,.26-.2,.38,0,.08,.21,.22,.32,.22,.21,0,.43-.06,.64-.12,.47-.11,.93-.51,1.42-.04,.01,.01,.04,.01,.07,.02,.42,.04,.84,.08,1.39,.14Zm5.27,2.03c-.71-.19-1.11,.28-1.52,.72,0,0-.02,.02-.02,.03-.27,.34-.59,.58-1,.74-.21,.08-.4,.23-.58,.37-.06,.04-.11,.17-.08,.22,.04,.08,.15,.17,.23,.17,.13,0,.28-.04,.4-.1,.26-.15,.49-.37,.76-.49,.85-.39,1.61-.99,2.55-1.21,.02,0,.05,0,.07-.02,.07-.07,.14-.14,.22-.21-.09-.07-.18-.2-.28-.21-.24-.03-.49-.01-.73-.01Zm-32.73-4.17l-.08,.09c.21,.43,.49,.8,1,.92,.34,.08,.57,.23,.61,.61,.01,.15,.09,.3,.17,.42,.06,.08,.19,.18,.27,.16,.08-.02,.19-.18,.18-.26-.05-.24-.1-.51-.24-.69-.18-.23-.45-.41-.7-.58-.39-.25-.8-.46-1.2-.68Z"/></svg>