<?xml version="1.0" encoding="utf-8"?>
<!-- Generator: Adobe Illustrator 26.1.0, SVG Export Plug-In . SVG Version: 6.00 Build 0)  -->
<svg version="1.1" id="a" xmlns="http://www.w3.org/2000/svg" xmlns:xlink="http://www.w3.org/1999/xlink" x="0px" y="0px"
	 viewBox="0 0 126.2 133.7" style="enable-background:new 0 0 126.2 133.7;" xml:space="preserve">
<style type="text/css">
	.st0{fill:#FFFFFF;}
</style>
<path class="st0" d="M86.8,114.4c0,5-3.7,9.3-8,9.3H18c-4.4,0-8-4.2-8-9.3V19.3c0-5,3.7-9.3,8-9.3h60.8c4.3,0,8,4.2,8,9.3v37.6
	l10-10V19.3C96.8,8.6,88.7,0,78.8,0H18C8.1,0,0,8.6,0,19.3v95.1c0,10.6,8.1,19.3,18,19.3h60.8c9.9,0,18-8.6,18-19.3V72.5l-10,10
	L86.8,114.4L86.8,114.4z"/>
<path class="st0" d="M21.3,40.3h54.2c2.8,0,5-2.2,5-5s-2.2-5-5-5H21.3c-2.8,0-5,2.2-5,5S18.6,40.3,21.3,40.3z"/>
<path class="st0" d="M21.3,105.3h54.2c2.8,0,5-2.2,5-5s-2.2-5-5-5H21.3c-2.8,0-5,2.2-5,5S18.6,105.3,21.3,105.3z"/>
<g>
	<path class="st0" d="M78.7,65c-0.9-0.7-2-1.2-3.2-1.2H64.9l7.4,7.4L78.7,65L78.7,65z"/>
	<path class="st0" d="M43.9,63.8H21.3c-2.8,0-5,2.2-5,5s2.2,5,5,5h27.9l-2.7-2.7C44.6,69.1,43.7,66.4,43.9,63.8L43.9,63.8z"/>
	<path class="st0" d="M124.7,31.8c-1-1-2.3-1.5-3.6-1.5s-2.6,0.5-3.6,1.5L96.3,53l-10,10l-5.8,5.8l-5,5l-2.4,2.4l-0.7,0.7l-0.7-0.7
		l-2.4-2.4l-10-10l-2.7-2.7c-1-1-2.3-1.5-3.6-1.5s-2.6,0.5-3.6,1.5c-0.8,0.8-1.2,1.7-1.4,2.7c-0.3,1.6,0.2,3.2,1.4,4.5l5.5,5.5
		l2.4,2.4l10,10l1.5,1.5c1,1,2.3,1.5,3.6,1.5s2.6-0.5,3.6-1.5l10.3-10.3l10-10L124.7,39C126.7,37,126.7,33.8,124.7,31.8z"/>
</g>
</svg>
