<svg id="Capa_1" data-name="Capa 1" xmlns="http://www.w3.org/2000/svg" viewBox="0 0 140.33 119.19"><defs><style>.cls-1{fill:#fff;}</style></defs><path class="cls-1" d="M124.8,61.66v-10a2.05,2.05,0,0,0,1.48-.51v-20a2.05,2.05,0,0,0-1.48-.51h-9a2,2,0,0,0-1.47.51V43h-10V31c0-5.72,5.15-10.38,11.47-10.38h9c6.33,0,11.48,4.66,11.48,10.38V51.28C136.28,57,131.13,61.66,124.8,61.66Z" transform="translate(-4.67 -8.24)"/><path class="cls-1" d="M117.1,127.43H33.3a14.88,14.88,0,0,1-14.78-14.94v-54a5,5,0,0,1,10,0v54a4.87,4.87,0,0,0,4.78,4.94h83.8a4.87,4.87,0,0,0,4.78-4.94v-54a5,5,0,1,1,10,0v54A14.88,14.88,0,0,1,117.1,127.43Z" transform="translate(-4.67 -8.24)"/><path class="cls-1" d="M98.89,127.43H51.51V79.65a9.73,9.73,0,0,1,9.72-9.72H89.17a9.73,9.73,0,0,1,9.72,9.72Zm-37.38-10H88.89V79.93H61.51Z" transform="translate(-4.67 -8.24)"/><path class="cls-1" d="M9.67,72.38a5,5,0,0,1-3.2-8.85L71.64,9.39a5,5,0,0,1,6.39,0L143.2,63.53a5,5,0,1,1-6.4,7.69l-62-51.48-62,51.48A4.94,4.94,0,0,1,9.67,72.38Z" transform="translate(-4.67 -8.24)"/></svg>