<?xml version="1.0" encoding="utf-8"?>
<!-- Generator: Adobe Illustrator 26.0.2, SVG Export Plug-In . SVG Version: 6.00 Build 0)  -->
<svg version="1.1" id="Capa_1" xmlns="http://www.w3.org/2000/svg" xmlns:xlink="http://www.w3.org/1999/xlink" x="0px" y="0px"
	 viewBox="0 0 14.4 12.3" style="enable-background:new 0 0 14.4 12.3;" xml:space="preserve">
<style type="text/css">
	.st0{fill:#FFFFFF;}
</style>
<path class="st0" d="M1.2,0h11.9c0.7,0,1.2,0.6,1.2,1.2v0c0,0.7-0.6,1.2-1.2,1.2H1.2C0.6,2.5,0,1.9,0,1.2v0C0,0.6,0.6,0,1.2,0z"/>
<path class="st0" d="M1.2,4.9h11.9c0.7,0,1.2,0.6,1.2,1.2v0c0,0.7-0.6,1.2-1.2,1.2H1.2C0.6,7.4,0,6.9,0,6.2v0C0,5.5,0.6,4.9,1.2,4.9
	z"/>
<path class="st0" d="M1.2,9.9h11.9c0.7,0,1.2,0.6,1.2,1.2v0c0,0.7-0.6,1.2-1.2,1.2H1.2c-0.7,0-1.2-0.6-1.2-1.2v0
	C0,10.4,0.6,9.9,1.2,9.9z"/>
</svg>
