<svg id="Capa_1" data-name="Capa 1" xmlns="http://www.w3.org/2000/svg" viewBox="0 0 149 129"><defs><style>.cls-1{fill:none;stroke:#fff;stroke-linecap:round;stroke-linejoin:round;stroke-width:10px;}</style></defs><path class="cls-1" d="M26.13,99.1l4-5.6c1.13-1.6,2.25-3.21,3.4-4.8a1,1,0,0,0,.07-1.26,42.77,42.77,0,0,1-3.71-9,.89.89,0,0,0-.81-.71c-3.89-.64-7.78-1.31-11.67-1.92-.71-.11-.91-.4-.91-1.1,0-6.51,0-13,0-19.51,0-.68.13-1,.88-1.11,3.91-.54,7.8-1.15,11.71-1.72a.85.85,0,0,0,.81-.7,46.82,46.82,0,0,1,3.66-9.13,1.18,1.18,0,0,0-.13-1.45c-2.31-3.14-4.58-6.32-6.89-9.46-.33-.45-.37-.73.07-1.16q7.16-7,14.26-14.06a.71.71,0,0,1,1.11-.1c3.18,2.27,6.38,4.5,9.55,6.77a1.1,1.1,0,0,0,1.33.08,43.36,43.36,0,0,1,8.88-3.69.89.89,0,0,0,.73-.8c.64-3.89,1.29-7.78,1.92-11.67.16-1,.15-1,1.12-1C72,6,78.49,6,85,6c.68,0,1,.14,1.08.9.58,3.82,1.25,7.63,1.89,11.45a1.06,1.06,0,0,0,.83,1A44.18,44.18,0,0,1,97.46,23,1.22,1.22,0,0,0,99,22.83c3.21-2.26,6.45-4.48,9.66-6.73.4-.28.65-.34,1,.07,2.3,2.38,4.64,4.73,7,7.09s4.77,4.88,7.18,7.28c.42.42.36.67.05,1.1-2.3,3.14-4.57,6.32-6.88,9.46a1.18,1.18,0,0,0-.09,1.51,38.59,38.59,0,0,1,3.6,8.75,1,1,0,0,0,.88.82c3.72.6,7.44,1.25,11.16,1.84,1.49.23,1.5.18,1.5,1.69,0,6.33,0,12.67,0,19,0,.78-.23,1.05-1,1.15-3.76.51-7.52,1.07-11.27,1.62a.91.91,0,0,0-.9.7,43.4,43.4,0,0,1-3.73,9,1,1,0,0,0,.07,1.19c2.35,3.27,4.66,6.57,7,9.83.38.52.31.8-.12,1.22q-7,7-14,14a.69.69,0,0,1-1.09.09c-3.21-2.3-6.45-4.57-9.65-6.88a1.34,1.34,0,0,0-1.64-.15A50.64,50.64,0,0,1,89,110.19a1.24,1.24,0,0,0-.71.79q-1,5.82-1.94,11.67c-.11.67-.31,1-1.06,1q-9.8,0-19.58,0c-.69,0-1-.18-1.08-.92-.59-3.8-1.25-7.59-1.89-11.38a1,1,0,0,0-.8-.9,42.14,42.14,0,0,1-8.84-3.59,1.46,1.46,0,0,0-1.79.15c-3.15,2.29-6.34,4.54-9.5,6.83-.42.3-.71.39-1.13,0q-7.16-7.2-14.34-14.39A3.11,3.11,0,0,1,26.13,99.1Z"/><path class="cls-1" d="M75.29,42.05A22.76,22.76,0,1,0,98,64.8,22.79,22.79,0,0,0,75.29,42.05Z"/></svg>